<svg width="28" height="28" viewBox="0 0 28 28" fill="none" xmlns="http://www.w3.org/2000/svg">
<path d="M21.5819 7.14877C20.5713 5.26752 20.0025 4.21095 18.7841 2.67314C17.5678 1.13533 16.1285 -0.40467 14.5185 0.971267C13.7047 1.6647 13.9497 2.7672 14.5556 3.86314C14.4528 3.79533 14.6497 4.33564 14.5535 4.26345C12.7269 2.87002 12.3375 3.02314 11.7075 3.52189C10.2113 4.70533 12.7925 7.1247 13.6347 8.42189C13.7791 8.64502 14.3063 8.85283 14.431 9.05845C14.5163 9.19845 14.5972 9.33408 14.6738 9.46533C14.5797 9.43689 14.4835 9.40845 14.385 9.38002C13.5013 9.13283 11.4713 8.86595 10.5481 9.21377C4.82127 11.375 5.11002 12.3178 5.5497 13.556C5.98939 14.7941 7.59502 15.7085 10.22 14.0766C13.4597 12.7378 16.1503 14.5316 16.1503 16.3953C16.1503 18.9547 15.3125 20.4006 13.1141 20.4006C9.63814 20.4006 9.4522 17.5656 7.59502 15.7085C7.09408 15.2075 5.89095 15.061 5.18002 15.575C3.52189 16.776 4.59377 19.2675 5.0072 20.101C5.87345 21.8444 6.94095 24.3731 9.75189 26.6525C11.2306 27.8513 14.8991 27.6675 17.021 27.2344C21.0547 26.4119 21.8663 23.7322 23.1613 19.145C23.6491 17.4191 23.7147 16.03 23.7147 14.1028C23.7147 12.1756 22.5225 8.90096 21.5819 7.14877Z" fill="#FAC036"/>
<path d="M21.5031 13.2322C21.245 12.1297 19.1341 10.4059 18.2547 9.83716C18.165 9.35591 16.8678 6.52528 16.0278 5.40747C15.5619 4.78622 14.7 3.94622 14.396 3.56122C14.396 3.56122 14.4703 3.86528 14.2538 4.04028C14.3369 4.14091 15.5991 5.73122 16.1241 6.91247C16.6491 8.09372 17.0844 9.37122 17.0844 9.37122C16.5135 9.18091 14.256 8.42403 13.6325 8.42184C13.6325 8.42184 13.8513 8.61872 13.8469 8.98184C13.8425 9.32091 13.3722 9.14153 13.6325 9.21809C15.2994 9.70153 17.6269 10.279 19.0619 11.6528C19.6285 12.1975 20.4663 13.2322 20.86 13.9125C21.1444 14.3981 21.5731 13.5318 21.5031 13.2322Z" fill="#E48C15"/>
</svg>
